<svg width="25" height="18" viewBox="0 0 25 18" fill="none" xmlns="http://www.w3.org/2000/svg">
<path d="M18.202 7.27717C18.0832 7.31408 18.0057 7.4002 18.0057 7.49577L18.0057 10.0882L10.0634 10.0882C9.88806 10.0882 9.74573 10.1942 9.74573 10.3248L9.74573 14.11C9.74573 14.2406 9.88806 14.3466 10.0634 14.3466L18.0057 14.3466L18.0057 16.949C18.0057 17.0445 18.0832 17.1307 18.2014 17.1676C18.3202 17.204 18.4568 17.1841 18.5477 17.1165L24.9066 12.3967C24.9663 12.3523 25 12.2922 25 12.2292C25 12.1663 24.9663 12.1062 24.9072 12.0617L18.5483 7.32827C18.4574 7.2606 18.3208 7.24027 18.202 7.27717Z" fill="#BDBDBD"/>
<path d="M6.798 0.0737654C6.9168 0.110672 6.99433 0.196793 6.99433 0.292363L6.99433 2.88478L14.9366 2.88478C15.1119 2.88478 15.2543 2.99077 15.2543 3.12136L15.2543 6.90662C15.2543 7.03721 15.1119 7.14321 14.9366 7.14321L6.9943 7.1432L6.9943 9.74556C6.9943 9.84113 6.91677 9.92725 6.79859 9.96415C6.67978 10.0006 6.54317 9.98072 6.4523 9.91305L0.0934021 5.19332C0.0336859 5.14885 1.16757e-06 5.08875 1.17032e-06 5.02582C1.17307e-06 4.9629 0.0336869 4.9028 0.0927765 4.85833L6.45167 0.124866C6.54257 0.0571972 6.67916 0.0368591 6.798 0.0737654Z" fill="#BDBDBD"/>
</svg>
