<svg width="381" height="58" viewBox="0 0 381 58" fill="none" xmlns="http://www.w3.org/2000/svg">
<g clip-path="url(#clip0)">
<path d="M20.2096 0.744354V37.5187C23.6019 37.9363 27.0129 38.1827 30.4298 38.2571C31.1859 38.2778 31.9582 38.2925 32.7422 38.2984V0.744354H20.2096Z" fill="url(#paint0_linear)"/>
<path d="M87.2341 13.958C86.0605 11.2831 84.3371 8.88749 82.1769 6.92806C80.0175 4.96873 77.4473 3.44754 74.4661 2.3645C71.485 1.28145 68.2155 0.739929 64.6577 0.739929H45.5175L37.5258 12.4988H64.6504C66.2631 12.4839 67.8646 12.7693 69.3736 13.3407C70.7713 13.8723 72.063 14.6506 73.1878 15.6387C74.274 16.6058 75.1412 17.7953 75.7311 19.1271C76.3299 20.5198 76.6388 22.0208 76.6388 23.5378C76.6388 25.0547 76.3299 26.5557 75.7311 27.9485C75.148 29.2462 74.3024 30.408 73.2481 31.3601C72.1455 32.3366 70.859 33.0814 69.4648 33.5503C67.9168 34.0828 66.2896 34.3461 64.6533 34.3286H50.1187V17.7743H37.5258V38.2837C51.953 38.0193 68.95 35.9768 87.0811 32.3348C87.1223 32.2447 87.162 32.1546 87.2032 32.066C88.4339 29.2511 89.0497 26.1989 89.0507 22.9094C89.0507 19.6651 88.4452 16.6814 87.2341 13.958ZM64.6504 45.9516C68.163 45.9516 71.4124 45.3658 74.3984 44.1941C75.5478 43.749 76.6629 43.2194 77.7346 42.6094C68.6146 44.1557 59.8624 45.2811 51.6441 45.9561L64.6504 45.9516Z" fill="url(#paint1_linear)"/>
<path d="M96.6776 0.744354L88.5653 12.5033H107.577V27.5674C111.923 26.3918 116.101 25.1611 120.112 23.8752V12.5033H134.581L142.695 0.744354H96.6776ZM107.576 45.9516H120.11V32.6597C116.089 33.9111 111.911 35.1079 107.576 36.25V45.9516Z" fill="url(#paint2_linear)"/>
<path d="M196.643 6.21768C196.077 4.09983 195.158 2.53385 193.886 1.51972C192.683 0.531118 191.175 -0.00620363 189.621 7.47282e-06C187.966 7.47282e-06 186.583 0.43913 185.471 1.31738C184.31 2.26234 183.37 3.45166 182.717 4.80134L176.238 17.6428C175.355 19.3983 174.578 20.9294 173.906 22.2359C173.234 23.5425 172.649 24.724 172.15 25.7804C171.646 26.8408 171.202 27.7865 170.817 28.6175C170.435 29.4549 170.082 30.2731 169.76 31.0839C169.396 30.2731 169.024 29.4431 168.639 28.5865C168.253 27.7299 167.811 26.7832 167.306 25.7465C166.801 24.7097 166.216 23.5311 165.55 22.2019C164.883 20.8727 164.108 19.3265 163.221 17.5734L162.122 15.4098C159.147 17.0255 155.855 18.687 152.267 20.3603C152.588 21.1105 152.96 21.9267 153.383 22.8089C153.847 23.7797 154.362 24.8721 154.929 26.0861C155.496 27.3001 156.141 28.6726 156.864 30.2037L162.306 41.6244C162.831 42.7498 163.365 43.6418 163.91 44.2931C164.384 44.8831 164.946 45.3966 165.576 45.8158C166.129 46.1706 166.746 46.4115 167.393 46.5247C168.797 46.7492 170.227 46.7492 171.631 46.5247C172.277 46.4115 172.894 46.1706 173.447 45.8158C174.076 45.3961 174.637 44.8827 175.111 44.2931C175.655 43.6418 176.192 42.7498 176.717 41.6244L182.16 30.2701C183.533 27.3439 184.643 24.9233 185.49 23.0083C186.337 21.0933 187.104 19.3476 187.791 17.7713C188.114 19.6174 188.498 21.5098 188.941 23.4484C189.384 25.3871 189.933 27.6388 190.587 30.2037L194.403 45.9487H206.875L196.643 6.21768ZM156.742 4.80134C156.015 3.3156 155.096 2.14493 153.986 1.28932C152.876 0.433715 151.514 0.00542702 149.9 0.00444244C148.336 0.000833005 146.819 0.537413 145.602 1.52415C144.31 2.53729 143.382 4.10327 142.816 6.2221L140.092 16.5603C147.107 13.6479 153.224 10.703 158.323 7.91609L156.742 4.80134ZM132.341 45.9561H144.631L148.447 30.2037C149.053 27.6369 149.577 25.3723 150.021 23.41C150.194 22.6499 150.357 21.9011 150.509 21.1637C146.486 22.9965 142.116 24.8396 137.431 26.6459L132.341 45.9561Z" fill="url(#paint3_linear)"/>
<path d="M18.1826 44.2517C21.2716 44.6446 25.3785 45.0507 30.2371 45.2043C30.2371 45.2043 33.5703 45.293 37.0786 45.2398C53.7931 44.9843 74.294 42.3333 95.6818 37.6235C117.823 32.7498 136.644 25.9916 150.864 19.421L151.702 19.0311C157.492 16.3269 162.491 13.6582 166.618 11.1741L170.545 18.1066L175.605 9.43727L180.665 0.766502L170.663 0.701519L160.66 0.636536L163.901 6.37717C150.087 14.7437 125.728 25.3787 94.4712 32.2595C70.4945 37.5334 47.7342 40.18 30.3842 39.7074C25.1314 39.5597 20.7744 39.1432 17.2073 38.5347C8.23445 37.015 4.27168 34.3035 3.7083 31.8046C2.93163 28.3339 6.55167 23.6242 13.652 18.8332C13.7795 18.747 13.9138 18.6715 14.0536 18.6072C15.3495 18.0165 15.3598 17.9264 13.805 18.4595C4.54969 21.4369 -0.842864 28.6323 0.100024 33.6817C1.29592 40.084 12.7371 43.3257 17.5677 44.1676C17.8222 44.1971 18.0325 44.234 18.1826 44.2517Z" fill="url(#paint4_linear)"/>
</g>
<g clip-path="url(#clip1)">
<path d="M242.446 23.9664H235V21.2974H253.126V23.9664H245.644V45.6016H242.446V23.9664Z" fill="url(#paint5_linear)"/>
<path d="M254.943 37.4517C255.017 41.7424 257.773 43.5098 260.974 43.5098C263.263 43.5098 264.643 43.1139 265.842 42.6083L266.387 44.8813C265.26 45.3921 263.335 45.9617 260.539 45.9617C255.136 45.9617 251.891 42.4295 251.891 37.163C251.891 31.8966 255.017 27.7515 260.137 27.7515C265.878 27.7515 267.403 32.765 267.403 35.9729C267.398 36.4676 267.362 36.9614 267.295 37.4517H254.943ZM264.316 35.1812C264.352 33.1609 263.48 30.0246 259.885 30.0246C256.651 30.0246 255.233 32.9796 254.981 35.1812H264.316Z" fill="url(#paint6_linear)"/>
<path d="M272.745 28.1474L275.251 31.8992C275.904 32.8723 276.45 33.7739 277.031 34.747H277.139C277.721 33.7024 278.302 32.8008 278.884 31.8634L281.354 28.1474H284.806L278.812 36.5756L284.987 45.5913H281.354L278.781 41.6607C278.089 40.6519 277.51 39.6788 276.892 38.6316H276.818C276.236 39.6788 275.619 40.6161 274.965 41.6607L272.423 45.5913H268.898L275.148 36.6855L269.189 28.1371L272.745 28.1474Z" fill="url(#paint7_linear)"/>
<path d="M292.402 23.1364V28.1474H296.979V30.5635H292.402V39.9776C292.402 42.1409 293.019 43.3668 294.8 43.3668C295.424 43.3752 296.047 43.3022 296.652 43.1497L296.799 45.53C295.89 45.8453 294.931 45.9917 293.969 45.9617C292.481 45.9617 291.282 45.4943 290.518 44.6285C289.61 43.6912 289.283 42.1409 289.283 40.0849V30.5635H286.548V28.1474H289.273V23.9664L292.402 23.1364Z" fill="url(#paint8_linear)"/>
<path d="M311.542 23.9664H304.096V21.2974H322.222V23.9664H314.74V45.6016H311.542V23.9664Z" fill="url(#paint9_linear)"/>
<path d="M338.171 36.7314C338.171 43.1855 333.666 45.9975 329.423 45.9975C324.663 45.9975 320.995 42.5367 320.995 37.02C320.995 31.1764 324.854 27.7515 329.714 27.7515C334.754 27.7515 338.171 31.3935 338.171 36.7314ZM324.221 36.9102C324.221 40.7412 326.436 43.6171 329.56 43.6171C332.611 43.6171 334.901 40.7694 334.901 36.8387C334.901 33.8812 333.411 30.1318 329.634 30.1318C325.857 30.1318 324.221 33.5925 324.221 36.9102Z" fill="url(#paint10_linear)"/>
<path d="M358.114 36.7314C358.114 43.1855 353.609 45.9975 349.366 45.9975C344.609 45.9975 340.94 42.5367 340.94 37.02C340.94 31.1764 344.799 27.7515 349.657 27.7515C354.7 27.7515 358.114 31.3935 358.114 36.7314ZM344.164 36.9102C344.164 40.7412 346.381 43.6171 349.505 43.6171C352.556 43.6171 354.844 40.7694 354.844 36.8387C354.844 33.8812 353.357 30.1318 349.577 30.1318C345.797 30.1318 344.164 33.5925 344.164 36.9102Z" fill="url(#paint11_linear)"/>
<path d="M362.146 20H365.344V45.6016H362.146V20Z" fill="url(#paint12_linear)"/>
<path d="M370.284 42.3554C371.55 43.1412 373.005 43.5767 374.498 43.6171C376.814 43.6171 377.912 42.4653 377.912 41.0222C377.912 39.5077 377.004 38.6776 374.642 37.8118C371.483 36.6957 369.993 34.9641 369.993 32.8723C369.993 30.0629 372.283 27.7515 376.06 27.7515C377.571 27.7368 379.06 28.1098 380.382 28.8344L379.585 31.133C378.502 30.472 377.254 30.1228 375.983 30.1242C374.094 30.1242 373.039 31.2071 373.039 32.5045C373.039 33.9476 374.094 34.5963 376.384 35.4621C379.436 36.614 380.997 38.1285 380.997 40.726C380.997 43.7908 378.599 45.954 374.424 45.954C372.497 45.954 370.719 45.4866 369.484 44.7639L370.284 42.3554Z" fill="url(#paint13_linear)"/>
</g>
<defs>
<linearGradient id="paint0_linear" x1="22.0777" y1="3.67301" x2="37.1355" y2="56.1633" gradientUnits="userSpaceOnUse">
<stop stop-color="#2C7FD1"/>
<stop offset="1" stop-color="#005086"/>
</linearGradient>
<linearGradient id="paint1_linear" x1="32893.4" y1="33699" x2="36996.5" y2="50063.1" gradientUnits="userSpaceOnUse">
<stop stop-color="#2C7FD1"/>
<stop offset="1" stop-color="#005086"/>
</linearGradient>
<linearGradient id="paint2_linear" x1="54574.2" y1="28927.5" x2="58500.2" y2="45380.2" gradientUnits="userSpaceOnUse">
<stop stop-color="#2C7FD1"/>
<stop offset="1" stop-color="#005086"/>
</linearGradient>
<linearGradient id="paint3_linear" x1="95451.4" y1="26244.8" x2="98566.5" y2="43648.2" gradientUnits="userSpaceOnUse">
<stop stop-color="#2C7FD1"/>
<stop offset="1" stop-color="#005086"/>
</linearGradient>
<linearGradient id="paint4_linear" x1="149751" y1="30817.2" x2="150956" y2="47896.2" gradientUnits="userSpaceOnUse">
<stop stop-color="#2C7FD1"/>
<stop offset="1" stop-color="#005086"/>
</linearGradient>
<linearGradient id="paint5_linear" x1="227.225" y1="30.7244" x2="463.642" y2="62.5114" gradientUnits="userSpaceOnUse">
<stop stop-color="#2C7FD1"/>
<stop offset="1" stop-color="#005086"/>
</linearGradient>
<linearGradient id="paint6_linear" x1="10951.8" y1="27270.1" x2="25278" y2="28898.8" gradientUnits="userSpaceOnUse">
<stop stop-color="#2C7FD1"/>
<stop offset="1" stop-color="#005086"/>
</linearGradient>
<linearGradient id="paint7_linear" x1="11384.4" y1="25993" x2="26210.4" y2="27817" gradientUnits="userSpaceOnUse">
<stop stop-color="#2C7FD1"/>
<stop offset="1" stop-color="#005086"/>
</linearGradient>
<linearGradient id="paint8_linear" x1="7516.93" y1="33592.1" x2="17238.4" y2="34184.9" gradientUnits="userSpaceOnUse">
<stop stop-color="#2C7FD1"/>
<stop offset="1" stop-color="#005086"/>
</linearGradient>
<linearGradient id="paint9_linear" x1="12908.7" y1="35360" x2="29699" y2="37031.3" gradientUnits="userSpaceOnUse">
<stop stop-color="#2C7FD1"/>
<stop offset="1" stop-color="#005086"/>
</linearGradient>
<linearGradient id="paint10_linear" x1="12250.1" y1="26680.2" x2="28068.9" y2="28667.6" gradientUnits="userSpaceOnUse">
<stop stop-color="#2C7FD1"/>
<stop offset="1" stop-color="#005086"/>
</linearGradient>
<linearGradient id="paint11_linear" x1="12291.4" y1="26494.7" x2="28108" y2="28481.6" gradientUnits="userSpaceOnUse">
<stop stop-color="#2C7FD1"/>
<stop offset="1" stop-color="#005086"/>
</linearGradient>
<linearGradient id="paint12_linear" x1="2597.33" y1="36569.8" x2="5588.32" y2="36619.7" gradientUnits="userSpaceOnUse">
<stop stop-color="#2C7FD1"/>
<stop offset="1" stop-color="#005086"/>
</linearGradient>
<linearGradient id="paint13_linear" x1="8401.49" y1="26193.1" x2="19096.2" y2="27095.9" gradientUnits="userSpaceOnUse">
<stop stop-color="#2C7FD1"/>
<stop offset="1" stop-color="#005086"/>
</linearGradient>
<clipPath id="clip0">
<rect width="207" height="58" fill="white"/>
</clipPath>
<clipPath id="clip1">
<rect width="146" height="26" fill="white" transform="translate(235 20)"/>
</clipPath>
</defs>
</svg>
