<?xml version="1.0" encoding="utf-8"?>
<!-- Generator: Adobe Illustrator 25.4.1, SVG Export Plug-In . SVG Version: 6.00 Build 0)  -->
<svg version="1.1" id="Layer_1" xmlns="http://www.w3.org/2000/svg" xmlns:xlink="http://www.w3.org/1999/xlink" x="0px" y="0px"
	 viewBox="0 0 32 32" style="enable-background:new 0 0 32 32;" xml:space="preserve">
<style type="text/css">
	.st0{fill:#3474DF;}
</style>
<path class="st0" d="M24,14.24c-3.33,4.5-6.82,4.3-6.82,4.3c-0.16,0.53,1.42,3.05,1.42,3.05C17.16,24.91,16,31.94,15.99,32
	l0.22-9.74l-0.22-0.67l-0.23,0.67L15.99,32c-1.34-7.73-2.58-10.4-2.58-10.4c1.75-2.76,1.37-3.09,1.37-3.09
	c-4.46-0.42-6.72-4.28-6.72-4.28c1.99,0.84,2.85,0.41,2.85,0.41c-4.54-0.74-4.28-6.22-4.28-6.22c1.41,2.93,2.94,3.02,2.94,3.02
	C5.23,7.16,8.5,3.6,8.5,3.6c0.17,2.96,1.09,4.04,1.09,4.04C7.43,0.79,14.42,0,14.42,0c-5.78,2.32-3.17,7.9-3.17,7.9
	c-0.51,4.03,2.69,5.58,2.69,5.58c-0.02,1.55,0.93,2.58,0.93,2.58c0.3-0.83,0.51-1.83,0.51-1.83c0.13-0.59,0.1-1.36,0.1-1.36
	c0-0.56-1.2-0.65-1.2-0.65c0.19-0.41,0.89-0.27,0.89-0.27c0.13-0.13,0.31-0.18,0.46-0.19c0.17-0.02,0.33,0.01,0.49,0.07
	c0.91,0.32,2.03-0.01,2.03-0.01c-0.24,0.13-0.4,0.49-0.4,0.49c-0.27,0.51-1.18,0.54-1.18,0.54c0.05,0.44,0.29,1.29,0.29,1.29
	c0.36,1.37,0.34,1.88,0.34,1.88c0.9-0.87,0.95-2.53,0.95-2.53c3.63-2.06,2.6-5.48,2.6-5.48c2.59-5.56-3.02-7.98-3.1-8.01
	c7.12,1.52,4.91,7.5,4.88,7.57c1.25-1.89,1.01-3.97,1.01-3.97c3.01,4.03-1,7.88-1.04,7.92c2.81-1.78,2.85-3.12,2.85-3.12
	c0.4,5.78-4.17,6.31-4.17,6.31C22.91,14.92,24,14.24,24,14.24z"/>
</svg>
